Coordinates
version=1
nRows=12
nColumns=33
inDegrees=yes

Units are S.I. units (second, meters, Newtons, ...)
Angles are in degrees.

endheader
time	ground_thorax_rot_x	ground_thorax_rot_y	ground_thorax_rot_z	ground_thorax_tx	ground_thorax_ty	ground_thorax_tz	clav_prot_r	clav_elev_r	scapula_abduction_r	scapula_elevation_r	scapula_upward_rot_r	scapula_winging_r	shoulder_elv_r	plane_of_elev_r	axial_rot_r	elbow_flexion_r	pro_sup_r	wrist_flex_r	wrist_dev_r	clav_prot_l	clav_elev_l	scapula_abduction_l	scapula_elevation_l	scapula_upward_rot_l	scapula_winging_l	shoulder_elv_l	plane_of_elev_l	axial_rot_l	elbow_flexion_l	pro_sup_l	wrist_flex_l	wrist_dev_l
      7.57000000	     35.17158499	     20.33166695	     25.24230888	   -177.68927454	    813.69058590	      6.08452783	     13.47650516	     36.09544196	     36.49871236	     45.00000000	    -45.00000000	  -2603.29156142	  -1545.00042610	    143.16819420	    179.99999979	   2892.91890442	     53.14662026	     23.58152063	      9.66760719	      6.90309044	    -45.00000000	    -38.44717981	     45.00000000	    -38.80322241	   2257.22180690	  -1364.92031985	     22.48059370	    -48.36405233	    370.78589322	      9.96142091	      7.34534331	    -20.04387721
      7.58000000	     35.31004276	     20.07007264	     24.84148230	   -180.16796860	    814.55099229	      6.07189317	     13.39967874	     36.09698536	     36.50996801	     45.00000000	    -45.00000000	  -2603.40692809	  -1544.91973343	    143.16137284	    179.99999979	   2892.95399088	     52.90597294	     23.53933783	      9.60883004	      6.89287059	    -45.00000000	    -38.43729942	     45.00000000	    -38.74071402	   2257.34099048	  -1364.80716169	     22.45892328	    -48.36598182	    370.77798233	      9.34422610	      7.32272526	    -20.02438356
      7.59000000	     35.43545621	     19.83257118	     24.46533382	   -182.58731415	    815.39249061	      6.07358957	     13.33698537	     36.09732534	     36.50711336	     45.00000000	    -45.00000000	  -2603.50949611	  -1544.84784440	    143.16541109	    179.99999979	   2892.98148892	     52.65613857	     23.49635430	      9.56050337	      6.89414988	    -45.00000000	    -38.42827302	     45.00000000	    -38.65798983	   2257.47318750	  -1364.70866068	     22.42686971	    -48.47393432	    370.78415794	      8.76206429	      7.27895356	    -20.00648212
      7.60000000	     35.58116131	     19.57702038	     24.06952687	   -184.94483637	    816.21468757	      6.08915824	     13.21983652	     36.14233891	     36.55255226	     45.00000000	    -45.00000000	  -2603.62590831	  -1544.80417828	    143.18335055	    179.99999979	   2893.01167678	     52.40978019	     23.45107022	      9.49796902	      6.84325105	    -45.00000000	    -38.40691932	     45.00000000	    -38.40128023	   2257.59856843	  -1364.68331750	     22.33310561	    -48.57878064	    370.76992105	      8.23981360	      7.21230879	    -19.99214528
      7.61000000	     35.69418703	     19.36889388	     23.72445950	   -187.23910346	    817.01740943	      6.11711132	     13.18123706	     36.12579707	     36.52038236	     45.00000000	    -45.00000000	  -2603.70176486	  -1544.72374418	    143.19316796	    179.99999979	   2893.02663548	     52.15423446	     23.41470999	      9.47147381	      6.87037462	    -45.00000000	    -38.37811076	     45.00000000	    -38.39365604	   2257.72614191	  -1364.59317402	     22.31437568	    -48.75109278	    370.78923291	      7.73292984	      7.14403831	    -19.97649022
      7.62000000	     35.88399532	     19.07896225	     23.32303253	   -189.46929704	    817.80012413	      6.15545705	     13.05697482	     36.17753530	     36.53099753	     45.00000000	    -45.00000000	  -2603.80477850	  -1544.59329474	    143.13503639	    179.99999979	   2893.08447151	     51.90620811	     23.39391757	      9.42587800	      6.84300465	    -45.00000000	    -38.27864838	     45.00000000	    -38.18577514	   2257.85166184	  -1364.60886917	     22.24219579	    -48.83974535	    370.76803078	      7.27744135	      7.05457582	    -19.96292094
      7.63000000	     35.91938942	     19.00450430	     23.10853232	   -191.63361982	    818.56174569	      6.20173432	     13.12028174	     36.08028655	     36.43292515	     45.00000000	    -45.00000000	  -2603.84693693	  -1544.57260095	    143.20785463	    179.99999979	   2893.05057971	     51.63981563	     23.34095476	      9.42207087	      6.93391422	    -45.00000000	    -38.28847045	     45.00000000	    -38.55786841	   2257.95484162	  -1364.41910364	     22.28279350	    -48.98926660	    370.83356651	      6.79396395	      6.99803285	    -19.94760837
      7.64000000	     36.00625148	     18.87819287	     22.84503626	   -193.73262490	    819.30243841	      6.25324642	     13.14215005	     36.01122375	     36.32333754	     45.00000000	    -45.00000000	  -2603.88678962	  -1544.46024793	    143.18206906	    179.99999979	   2893.02370702	     51.35777932	     23.30828283	      9.43423836	      7.03018347	    -45.00000000	    -38.23508827	     45.00000000	    -38.96480234	   2258.04159487	  -1364.28339599	     22.33123879	    -49.02150236	    370.88130297	      6.27589529	      6.95272947	    -19.93036076
      7.65000000	     36.15636091	     18.63988175	     22.48101864	   -195.76459199	    820.02230081	      6.30705116	     12.99241920	     36.07983855	     36.34071343	     45.00000000	    -45.00000000	  -2604.01657629	  -1544.41137232	    143.16391428	    179.99999979	   2893.07971352	     51.11693802	     23.28782079	      9.37100419	      6.97140032	    -45.00000000	    -38.13491806	     45.00000000	    -38.91665478	   2258.11211229	  -1364.22644696	     22.30957459	    -48.90625376	    370.85525204	      5.83899432	      6.85089900	    -19.91706790
      7.66000000	     36.23337679	     18.50759568	     22.20888204	   -197.72947988	    820.72176603	      6.36067395	     13.01292066	     36.02729839	     36.28713026	     45.00000000	    -45.00000000	  -2604.04494451	  -1544.36047050	    143.21109284	    179.99999979	   2893.04876371	     50.89037172	     23.24180581	      9.34804056	      7.03357677	    -45.00000000	    -38.16114013	     45.00000000	    -38.95854891	   2258.23322342	  -1364.13760787	     22.26634757	    -49.17182208	    370.88364215	      5.46760014	      6.79083222	    -19.90331850
      7.67000000	     36.39700577	     18.21416616	     21.78155391	   -199.62740786	    821.40141944	      6.41257447	     12.82589082	     36.11435990	     36.34947640	     45.00000000	    -45.00000000	  -2604.11074212	  -1544.23991433	    143.16307594	    179.99999979	   2892.98322755	     50.72221079	     23.21406848	      9.29010700	      6.95641039	    -45.00000000	    -38.09285994	     45.00000000	    -38.73205177	   2258.26971352	  -1364.17563163	     22.19347748	    -49.23336120	    370.72313426	      5.16246106	      6.65680357	    -19.86298141
      7.68000000	     36.43552228	     18.19435449	     21.62292086	   -201.46300914	    822.06247337	      6.46272547	     12.90994233	     36.01374927	     36.21280296	     45.00000000	    -45.00000000	  -2604.15611380	  -1544.21085774	    143.23002986	    179.99999979	   2893.02184797	     50.55667623	     23.20009048	      9.27077163	      7.05749494	    -45.00000000	    -38.03156579	     45.00000000	    -39.09232435	   2258.38786845	  -1364.02653667	     22.24470850	    -49.38481658	    370.84232581	      4.84725350	      6.57268123	    -19.85881326
